<svg width="175" height="34" viewBox="0 0 175 34" fill="none" xmlns="http://www.w3.org/2000/svg">
<g clip-path="url(#clip0_39_619)">
<path d="M106.854 10.83C106.854 11.91 107.064 13 107.493 14.02C108.341 16.05 109.928 17.63 111.954 18.45C113.949 19.27 116.135 19.25 118.111 18.42C120.096 17.58 121.633 16.02 122.451 14.02C122.861 13.02 123.06 11.98 123.06 10.94C123.06 9.89996 122.841 8.76996 122.412 7.73996C122.412 7.71996 122.392 7.67996 122.372 7.64996H124.268V3.04996H117.801C117.801 2.63996 117.801 0.209961 117.801 0.209961H112.103V3.02996C111.654 3.02996 105.258 3.02996 105.258 3.02996V7.64996H107.533C107.114 8.66996 106.864 9.73996 106.864 10.83H106.854ZM117.781 9.60996C118.101 10.37 118.111 11.21 117.801 11.97C117.492 12.73 116.913 13.32 116.165 13.63C114.618 14.28 112.822 13.54 112.163 11.97C112.004 11.58 111.924 11.17 111.924 10.77C111.924 9.56996 112.622 8.42996 113.78 7.93996C115.327 7.28996 117.123 8.02996 117.781 9.59996V9.60996Z" fill="white"/>
<path d="M135.953 2.25977H130.764V17.5698H135.983V10.9198H139.415V6.00977H135.953C135.953 5.58977 135.953 2.25977 135.953 2.25977Z" fill="white"/>
<path d="M96.4657 2.23047V7.90047H94.5198V2.23047H89.251V32.4305H94.5198V12.4905H96.4657V32.4305H101.735V2.23047H96.4657Z" fill="white"/>
<path d="M70.4307 2.33008V20.0401H85.399V15.0601H75.6297V7.30008H85.399V2.33008H70.4307Z" fill="white"/>
<path d="M15.3078 19.8601C11.9648 22.8601 11.6455 28.0101 14.6092 31.3401C17.583 34.6601 22.7221 34.9201 26.055 31.9301C27.6916 30.4601 28.6595 28.4501 28.7793 26.2701C28.7793 26.1201 28.7893 25.9601 28.7893 25.8101C28.7893 23.8301 28.0708 21.9401 26.7536 20.4601C23.7898 17.1401 18.6507 16.8701 15.3078 19.8701V19.8601ZM22.6922 28.1301C21.4348 29.2501 19.5189 29.1501 18.4212 27.9101C17.9123 27.3401 17.6728 26.6301 17.6728 25.9201C17.6728 25.0801 18.0121 24.2501 18.6906 23.6401C19.938 22.5201 21.8539 22.6201 22.9616 23.8601C24.0593 25.1001 23.9395 27.0201 22.7021 28.1401L22.6922 28.1301Z" fill="white"/>
<path d="M166.338 25.9998V18.3398H160.85C160.85 18.3398 160.85 25.5498 160.85 26.0098H154.324C154.324 25.5498 154.324 18.3398 154.324 18.3398H148.825V26.0098H143.287V30.8598H174.99V25.9998H166.338Z" fill="white"/>
<path d="M168.633 19.2405H173.793V2.73047H143.886V7.70047H168.633C168.633 8.17047 168.633 19.2505 168.633 19.2505V19.2405Z" fill="white"/>
<path d="M19.7283 13.53C19.7283 13.53 16.3255 8.23 15.9064 7.57H20.0875V2.8H12.8528V0H7.49416V2.78H0V7.57H4.45059C4.00154 8.23 0.439072 13.52 0.439072 13.52L4.80983 16.02C4.80983 16.02 9.5997 8.37 9.96892 7.77C10.3481 8.36 15.3575 16.01 15.3575 16.01L19.7183 13.51L19.7283 13.53Z" fill="white"/>
<path d="M25.9351 2.08008C25.9351 2.08008 25.9351 5.81008 25.9351 6.24008H21.4346V11.0401H25.9351V16.9601H31.2738V2.08008H25.945H25.9351Z" fill="white"/>
<path d="M66.1403 7.12V2.25H35.7346V7.23H44.077C42.9793 7.99 35.4951 13.19 35.4951 13.19L40.1553 15.64C40.1553 15.64 50.7628 7.51 51.0422 7.29C51.3316 7.51 61.8195 15.64 61.8195 15.64L66.8389 13.19C66.8389 13.19 58.9356 7.9 57.798 7.13H66.1403V7.12Z" fill="white"/>
<path d="M35.0059 19.9199V24.9299H48.3576V32.9199H53.7762V24.9299H66.7787V19.9199H35.0059Z" fill="white"/>
<path d="M106.355 20.0703V24.9503H131.183V32.9503H136.262V20.0803H106.355V20.0703Z" fill="white"/>
</g>
<defs>
<clipPath id="clip0_39_619">
<rect width="175" height="34" fill="white"/>
</clipPath>
</defs>
</svg>
