<svg width="165" height="50" viewBox="0 0 165 50" fill="none" xmlns="http://www.w3.org/2000/svg">
<g clip-path="url(#clip0_39_983)">
<path d="M30.9247 17.1524C32.4634 16.897 33.634 15.5725 33.634 13.9547C33.634 12.1571 32.1802 10.7002 30.3866 10.7002C28.5931 10.7002 27.1393 12.1571 27.1393 13.9547C27.1393 14.0304 27.1393 14.0871 27.1487 14.1534L27.1676 22.1761V22.195C29.0367 23.0465 30.2828 24.9291 30.2828 27.124C30.2828 30.1136 27.8851 32.5261 24.9115 32.5261C21.9379 32.5261 19.5496 30.1042 19.5496 27.124C19.5496 25.1278 20.6258 23.3776 22.2306 22.4504L22.6176 22.2518C22.6648 22.2234 22.712 22.2045 22.7686 22.1761V17.7484V14.1628C22.7686 14.0966 22.7781 14.0304 22.7781 13.9641C22.7781 12.1666 21.3243 10.7097 19.5307 10.7097C17.7372 10.7097 16.274 12.1666 16.274 13.9641C16.274 15.5157 17.369 16.8213 18.8228 17.143L11.3936 22.6586L17.1708 38.7513H32.6616L38.4861 22.7343L30.9058 17.1713L30.9247 17.1524Z" fill="white"/>
<path d="M3.32317 21.693C3.55917 21.7687 3.7574 21.7782 3.92732 21.712C4.09724 21.6457 4.21052 21.5322 4.26716 21.3619C4.4182 20.9456 4.24828 20.6524 3.77628 20.501C3.26653 20.3307 2.94557 20.4631 2.80397 20.8794C2.74733 21.0497 2.75677 21.2105 2.86061 21.3524C2.95501 21.4944 3.11549 21.6079 3.33261 21.6836L3.32317 21.693Z" fill="white"/>
<path d="M14.9985 8.69396C15.0645 8.39121 14.8853 8.08847 14.5836 8.01278C14.2818 7.9371 13.9801 8.12631 13.9141 8.42906C13.8387 8.7318 14.0272 9.044 14.329 9.11023C14.6307 9.18591 14.9325 8.9967 15.0079 8.6845L14.9985 8.69396Z" fill="white"/>
<path d="M39.1562 38.6562C39.0146 38.6845 38.8447 38.7886 38.6559 38.9873C38.6559 38.9873 38.5993 39.063 38.5615 39.1008C38.6276 39.1765 39.3356 39.8671 39.4111 39.9334C39.4678 39.8861 39.5622 39.8009 39.5622 39.8009C39.7415 39.6212 39.8359 39.4603 39.8454 39.3184C39.8454 39.309 39.8454 39.2995 39.8454 39.2806C39.8454 39.1481 39.7604 38.9968 39.581 38.8265C39.43 38.6751 39.2884 38.6183 39.1468 38.6467L39.1562 38.6562Z" fill="white"/>
<path d="M30.3863 4.1253C30.6975 4.10638 30.9427 3.84148 30.9238 3.51981C30.9049 3.19815 30.6315 2.96163 30.3203 2.98055C30.0091 2.99947 29.764 3.27383 29.7923 3.58604C29.8111 3.9077 30.0751 4.14422 30.3863 4.1253Z" fill="white"/>
<path d="M9.65704 37.1617C9.49656 36.963 9.27001 36.8874 8.95849 36.9441C8.64697 37.0009 8.28826 37.1901 7.90122 37.4928C7.47642 37.824 7.19323 38.1362 7.04219 38.4295C6.91003 38.7038 6.91003 38.9309 7.06107 39.1296C7.24043 39.3661 7.48587 39.4512 7.80682 39.4039C8.12778 39.3566 8.51481 39.1579 8.93961 38.8268C9.77976 38.1646 10.0158 37.6158 9.65704 37.1617Z" fill="white"/>
<path d="M44.9056 16.1684C44.679 16.2819 44.5374 16.4144 44.4619 16.5752C44.3864 16.7455 44.3864 16.8969 44.4619 17.0577C44.6602 17.455 44.9811 17.5402 45.4248 17.3226C45.9062 17.0861 46.0478 16.7739 45.8496 16.367C45.7646 16.2062 45.6419 16.1021 45.472 16.0643C45.3021 16.0265 45.1038 16.0643 44.8962 16.1589L44.9056 16.1684Z" fill="white"/>
<path d="M6.98441 14.8722L5.8623 14.21L6.41864 15.8277L6.98441 14.8722Z" fill="white"/>
<path d="M24.978 2.39766e-05C11.1957 -0.0188975 0.0189037 11.1637 2.39238e-05 24.9764C-0.0188559 38.789 11.1391 49.9906 24.9119 50.0095C38.6942 50.0284 49.871 38.8458 49.8899 25.0426C49.9088 11.2299 38.7508 0.0189455 24.978 2.39766e-05ZM48.2851 25.0142L47.9547 25.0615L47.1712 24.7777C46.9069 24.6831 46.6143 24.5885 46.3027 24.4844C45.9912 24.3898 45.6703 24.2952 45.3493 24.2006C45.0283 24.1154 44.7168 24.0303 44.4431 23.9641C44.1693 23.8978 43.9144 23.8505 43.6973 23.8127L43.584 22.9802C44.613 23.1599 45.9063 23.5383 47.4355 24.1249L47.1618 22.1476L47.8698 22.0435L48.2851 25.0142ZM47.7848 21.088L45.2171 21.5894L45.3115 22.0152L44.6979 22.1381L44.613 21.7124L43.4991 21.93L43.3575 21.2015L44.4714 20.9839L44.0938 19.0445L44.528 18.9593L47.7282 20.7474L47.7942 21.0785L47.7848 21.088ZM46.4349 16.0454C46.8786 16.9537 46.5293 17.6821 45.3871 18.2403C44.9151 18.4768 44.3392 18.5336 43.6784 18.4295C43.0177 18.3255 42.5362 18.0795 42.2341 17.72L42.4418 17.1618C43.0082 17.5497 43.584 17.7389 44.1693 17.7294C44.056 17.6443 43.9616 17.5024 43.8672 17.3132C43.6879 16.9537 43.6596 16.6036 43.7728 16.2725C43.8861 15.9319 44.1504 15.6765 44.5375 15.4778C44.9245 15.2886 45.3021 15.2507 45.6514 15.3643C46.0101 15.4778 46.265 15.7048 46.4349 16.0549V16.0454ZM43.0648 13.5573L43.7068 13.1978C44.226 13.5573 44.7357 13.7749 45.2643 13.86L45.4154 14.1344L41.6111 16.2725L41.2335 15.6008L43.9616 14.0587L43.0648 13.5573ZM41.1863 10.8042C41.6489 10.8042 42.0359 11.1826 42.0359 11.6462C42.0359 12.1098 41.6583 12.4882 41.1863 12.4882C40.7143 12.4882 40.3367 12.1098 40.3367 11.6462C40.3367 11.1826 40.7143 10.8042 41.1863 10.8042ZM36.136 4.2952L40.2706 7.22803L38.6942 9.47968L38.0428 9.01611L39.185 7.38886L35.7112 4.91015L36.1454 4.28574L36.136 4.2952ZM35.9849 7.46455L35.2297 8.56199L36.2209 9.26209L36.9667 8.1741L37.6747 8.66606L36.9195 9.75405L38.1183 10.615L37.6935 11.2205L33.2946 8.09842L33.7193 7.49293L34.5217 8.06057L35.2675 6.97259L35.9849 7.46455ZM33.4361 3.14099L34.2102 3.40589L33.9931 4.02084L34.5406 4.21005L34.2952 4.91961L33.7477 4.73039L33.3701 5.82784L32.596 5.56294L33.4267 3.14099H33.4361ZM29.0088 2.46928L29.2448 1.80702L30.3587 2.19492L30.5192 1.73134L31.3783 2.02462L31.2272 2.4882L32.2656 2.84771L32.039 3.51942L31.6992 3.40589C31.6992 3.40589 31.7086 3.46265 31.7086 3.49104C31.7464 4.2479 31.18 4.89123 30.4248 4.93853C29.6791 4.97637 29.0372 4.40873 28.9994 3.65187C28.9805 3.25452 29.1316 2.87609 29.3959 2.61119L29.0183 2.47874L29.0088 2.46928ZM28.433 4.64525L33.2379 6.3198L32.5394 8.32547L31.7842 8.06057L32.2278 6.74553L28.197 5.33588L28.433 4.63579V4.64525ZM25.3556 1.4286L26.1769 1.45698L26.1485 2.43143H26.5733L26.6017 1.46644L27.4324 1.49482L27.2719 6.60362L26.4506 6.57524L26.5545 3.15045L26.1297 3.13153L26.0258 6.55631L25.1951 6.52793L25.3556 1.41913V1.4286ZM42.0642 25.0331C42.0548 34.5033 34.3801 42.176 24.9214 42.1665C15.472 42.1571 7.81626 34.4655 7.8257 24.9953C7.83514 15.5251 15.5098 7.85244 24.9591 7.8619C34.4085 7.87136 42.0642 15.5629 42.0548 25.0426L42.0642 25.0331ZM13.1309 8.25925C13.3103 7.53077 14.0372 7.07666 14.764 7.24695C15.4909 7.41724 15.9346 8.15518 15.7647 8.88366C15.5853 9.61213 14.8584 10.0662 14.1316 9.89596C13.4047 9.72566 12.961 8.99719 13.1309 8.25925ZM24.4588 1.41913L24.4966 2.18545L22.8068 2.26114L22.8635 3.68025L24.5532 3.60456L24.591 4.38035L22.0894 4.48441L21.9667 1.5232L24.4682 1.41913H24.4588ZM21.372 5.3548L19.2385 6.09274L19.6822 7.38886L18.8798 7.66322L18.4361 6.3671L16.265 7.12396L16.029 6.40494L21.136 4.63579L21.3814 5.3548H21.372ZM20.0504 1.80702L20.2769 2.51658L18.8326 2.99908L20.7112 3.50996L20.0881 4.10598L17.8603 3.33966L16.5293 5.33588L15.7269 5.21289L16.8219 3.66133L15.3587 4.14383L15.1227 3.43427L20.0315 1.80702H20.0504ZM12.9232 4.70201L13.5935 4.22897L14.9906 6.25357L14.3204 6.72661L13.7445 5.89406L13.1026 6.34818L12.6778 5.73323L13.3197 5.28858L12.9232 4.70201ZM10.0913 6.23465L10.7898 5.76161L11.0541 6.15896L12.0831 5.43995L12.4985 6.04543L11.8849 6.47117L13.046 6.95367L12.7061 7.66322L11.1013 7.01989L11.1674 8.69444L10.4217 8.81743L10.3839 7.51185L9.72312 7.96597L9.31721 7.36994L10.365 6.64146L10.1007 6.23465H10.0913ZM8.92073 10.5298C9.39272 10.5298 9.77032 10.9083 9.77032 11.3813C9.77032 11.8543 9.39272 12.2233 8.92073 12.2233C8.44873 12.2233 8.08058 11.8449 8.08058 11.3813C8.08058 10.9177 8.45817 10.5298 8.92073 10.5298ZM5.11645 12.9045L7.37259 14.2384L7.59914 13.86L8.12778 14.1722L7.90122 14.5506L8.87353 15.1372L8.49593 15.7711L7.51418 15.194L6.51356 16.8874L6.12652 16.6604L4.94653 13.1978L5.11645 12.9045ZM2.93583 17.6065C3.07743 17.1807 3.29455 16.8874 3.55887 16.7171C3.83262 16.5469 4.1347 16.5185 4.48398 16.6415C4.79549 16.7455 5.12589 17.0388 5.49405 17.5024L6.48524 18.7796L7.01387 17.2375L7.66522 17.4645L6.73067 20.1419L6.52299 20.0662L5.05981 18.1079C4.76717 17.72 4.49342 17.474 4.21966 17.3794C3.91758 17.2753 3.69102 17.4078 3.56831 17.7768C3.47391 18.0606 3.53999 18.3444 3.77598 18.6188L3.21903 18.9783C3.05855 18.808 2.95471 18.5998 2.88863 18.3539C2.83199 18.0984 2.85087 17.843 2.93583 17.597V17.6065ZM2.15232 20.719C2.48272 19.7635 3.23791 19.4891 4.44622 19.896C4.95597 20.0662 5.39965 20.4163 5.78668 20.9556C6.17372 21.4948 6.35308 22.0057 6.31532 22.4693L5.7678 22.7247C5.64508 22.053 5.37133 21.5137 4.93709 21.1069C4.95597 21.2488 4.92765 21.4191 4.86157 21.6178C4.72941 21.9962 4.50286 22.2706 4.1819 22.422C3.86094 22.5733 3.50223 22.5828 3.08687 22.4504C2.68096 22.3084 2.38832 22.0814 2.20896 21.7597C2.03904 21.4286 2.02016 21.088 2.13344 20.719H2.15232ZM1.82192 23.1978L6.17372 23.5289L6.11708 24.3047L2.99247 24.0681L3.45503 24.9764L2.70928 24.9196C2.48272 24.333 2.18064 23.86 1.7936 23.5005L1.82192 23.1883V23.1978ZM2.04848 28.6755C2.596 27.6348 4.02142 27.4267 4.02142 27.4267C5.48461 27.1996 6.29644 28.07 6.29644 28.07C6.86283 28.7228 6.70235 29.4513 6.70235 29.4513L5.75836 29.6311C5.98492 29.4324 5.91884 29.0066 5.91884 29.0066C5.64508 27.9376 4.07806 28.2214 4.07806 28.2214C2.48272 28.5336 2.53936 29.7257 2.53936 29.7257C2.6432 30.1892 3.03967 30.3879 3.03967 30.3879L2.11456 30.6339C1.45377 29.5081 2.04848 28.685 2.04848 28.685V28.6755ZM3.07743 33.7086C3.07743 33.7086 4.92765 32.9612 5.04093 32.9234C5.00317 32.8193 4.6067 31.8259 4.56894 31.7313C4.45566 31.7692 2.60544 32.5166 2.60544 32.5166L2.3128 31.807L6.78731 30.0095L7.07051 30.719C7.07051 30.719 5.47517 31.3624 5.36189 31.4002C5.39965 31.5043 5.79612 32.4977 5.83388 32.6017C5.93772 32.5544 7.5425 31.9111 7.5425 31.9111L7.8257 32.6112L3.35119 34.4087L3.06799 33.7086H3.07743ZM5.75836 37.1902L5.00317 37.6159L3.84206 35.5346L8.00506 33.2167L8.0617 33.1883L9.21337 35.2697L8.45817 35.6954C8.45817 35.6954 7.7313 34.3803 7.67466 34.2857C7.58026 34.3425 6.91003 34.7115 6.81563 34.7588C6.87227 34.8628 7.37259 35.7711 7.37259 35.7711L6.64571 36.1779C6.64571 36.1779 6.13596 35.2697 6.08876 35.1656C5.99436 35.2224 5.06925 35.7332 4.97485 35.79C5.02205 35.8941 5.75836 37.1996 5.75836 37.1996V37.1902ZM6.39084 39.6689C6.20204 39.4229 6.10764 39.1675 6.10764 38.8837C6.10764 38.7039 6.1454 38.5241 6.22092 38.3255C6.40972 37.843 6.81563 37.351 7.42922 36.878C7.9673 36.4617 8.51481 36.2157 9.06233 36.1495C9.61928 36.0833 10.0535 36.2441 10.3462 36.6225C10.6671 37.0483 10.7521 37.5024 10.5822 37.9943C10.4217 38.4768 10.0346 38.9593 9.43048 39.4324C8.82633 39.9054 8.2505 40.1703 7.72186 40.2271C7.17435 40.2838 6.73067 40.0946 6.40028 39.6594L6.39084 39.6689ZM10.0818 43.4059C10.0818 43.4059 10.6294 40.615 10.7049 40.2176C10.4406 40.5109 8.89241 42.2801 8.89241 42.2801L8.3449 41.7881L11.4884 38.2119L11.5261 38.1646L11.8282 38.439C11.8282 38.439 11.3279 41.0975 11.2524 41.4854C11.5073 41.2015 13.0176 39.4891 13.0176 39.4891L13.5652 39.9716L10.3367 43.6424L10.0724 43.4059H10.0818ZM14.141 45.5062C13.9144 45.5629 13.669 45.5724 13.4141 45.5251C13.1592 45.4778 12.9232 45.3832 12.7156 45.2602C12.2625 44.9858 12.0265 44.5601 11.9981 44.0019C11.9698 43.4627 12.1586 42.8572 12.5362 42.2328C12.9232 41.6083 13.3858 41.1732 13.9144 40.9556C14.4431 40.738 14.9623 40.7758 15.4437 41.0691C15.793 41.2867 16.0101 41.6083 16.0856 42.0341V42.0719L15.4059 42.5923L15.3871 42.4882C15.3682 42.3841 15.321 42.2517 15.236 42.1098C15.1511 41.9584 15.0755 41.8638 14.9811 41.807C14.6979 41.6367 14.4053 41.6178 14.0844 41.7692C13.7634 41.9206 13.4613 42.2233 13.197 42.6585C12.9421 43.0748 12.8194 43.4627 12.8383 43.8032C12.8477 44.1438 12.9893 44.3898 13.2631 44.5601C13.433 44.6642 13.6029 44.6926 13.7917 44.6358C13.82 44.5979 14.1693 44.0208 14.226 43.9262C14.1504 43.8789 13.8012 43.6613 13.8012 43.6613L14.2448 42.9423L15.3115 43.6046L14.1599 45.4778H14.1316L14.141 45.5062ZM16.6992 46.6698C16.3783 46.8874 16.0007 46.8969 15.5664 46.7171C15.2832 46.6036 15.085 46.3955 14.9906 46.1211C14.8962 45.8468 14.9151 45.5346 15.0378 45.1845L15.0567 45.1183L15.6891 45.3832V45.4305C15.6231 45.6765 15.7175 45.8373 15.9629 45.9414C16.1328 46.0076 16.2744 45.9887 16.3971 45.8751C16.5293 45.7522 16.6803 45.5251 16.8125 45.2034L17.9547 42.4787L17.9736 42.422L18.6816 42.7153L17.5299 45.4683C17.2845 46.0549 17.0013 46.4522 16.6898 46.6604L16.6992 46.6698ZM21.0604 46.7739C20.9377 47.2564 20.7206 47.6159 20.4091 47.8335C20.0881 48.0511 19.72 48.1079 19.3046 48.0038C18.8893 47.8997 18.5872 47.6821 18.4267 47.351C18.2662 47.0294 18.2473 46.6131 18.3701 46.1117L19.1441 42.9707L19.163 42.9139L19.9088 43.0937L19.1347 46.2441C19.0781 46.4806 19.0875 46.6793 19.1536 46.8496C19.2197 47.0104 19.3424 47.1145 19.5217 47.1618C19.7294 47.2091 19.8993 47.1807 20.0409 47.0767C20.192 46.9631 20.2958 46.7834 20.3619 46.5374L21.1265 43.3964L21.8628 43.5762L21.0699 46.7834L21.0604 46.7739ZM26.3185 48.2309C26.073 48.5241 25.7238 48.6661 25.2895 48.685C24.8553 48.685 24.5154 48.5525 24.27 48.2782C24.034 48.0038 23.9018 47.6065 23.8924 47.0861L23.8358 43.7938H24.6004L24.657 47.0294C24.657 47.2659 24.7231 47.4645 24.827 47.6065C24.9402 47.7484 25.0818 47.8146 25.2612 47.8051C25.4689 47.8051 25.6294 47.7294 25.7426 47.5875C25.8559 47.4456 25.9125 47.2375 25.9125 46.9915L25.8465 43.7559H26.545L26.6017 43.7465L26.6583 47.0483C26.6583 47.5497 26.545 47.947 26.2901 48.2403L26.3185 48.2309ZM30.3587 48.0511C30.3587 48.0511 28.4991 45.9035 28.2348 45.6008C28.3103 45.9887 28.7445 48.2971 28.7445 48.2971L28.0271 48.4295L27.1209 43.6802L27.5079 43.6046C27.5079 43.6046 29.292 45.6292 29.5563 45.9319C29.4808 45.5535 29.0655 43.3113 29.0655 43.3113L29.7263 43.1883H29.7923L30.6986 47.9849L30.3587 48.0511ZM32.0107 47.5686L30.5287 42.9707L31.1989 42.7531L31.2555 42.7342L32.747 47.3321L32.0202 47.5686H32.0107ZM35.2108 46.3198L31.8219 42.545L32.5582 42.176C32.5582 42.176 34.3141 44.2101 34.5878 44.5128C34.5029 44.1154 34.0025 41.457 34.0025 41.457L34.6539 41.1353L34.7294 41.0975L35.6168 46.1211L35.2203 46.3198H35.2108ZM37.8446 44.7777L35.0126 40.861L36.8912 39.4986L36.9384 39.4608L37.4481 40.1703C37.4481 40.1703 36.2304 41.0502 36.136 41.1164C36.1926 41.2015 36.6457 41.8165 36.7118 41.9016C36.8062 41.8354 37.6463 41.2299 37.6463 41.2299L38.1372 41.9016C38.1372 41.9016 37.2971 42.5166 37.2027 42.5828C37.2687 42.6679 37.8918 43.5289 37.9579 43.6235C38.0523 43.5573 39.27 42.6679 39.27 42.6679L39.7703 43.3775L37.8446 44.7777ZM42.2625 41.0123C42.2625 41.0123 40.2801 40.3501 40.214 40.3312C40.1762 40.369 40.0441 40.4731 39.9874 40.5298C40.0724 40.6244 41.3845 41.9111 41.3845 41.9111L40.837 42.4787L37.4481 39.1296L37.4104 39.0823L37.7219 38.7323L38.1089 38.2971C38.4393 37.9565 38.7791 37.7862 39.1095 37.7862C39.4588 37.7862 39.7986 37.9565 40.1385 38.2971C40.3462 38.4958 40.4878 38.7323 40.5633 38.9972C40.601 39.1296 40.6199 39.2621 40.6199 39.3851C40.6199 39.4797 40.601 39.5648 40.5822 39.6405C40.6766 39.6784 42.8666 40.3879 42.8666 40.3879L42.253 41.0123H42.2625ZM43.9994 38.9972C43.7917 39.2715 43.518 39.4608 43.1687 39.5554H43.1309L42.5834 38.8269L42.6778 38.808C42.9893 38.7417 43.2159 38.6093 43.348 38.4295C43.5368 38.1552 43.518 37.947 43.2725 37.7673C43.1498 37.6821 43.0082 37.6254 42.8477 37.6159C42.6967 37.597 42.4607 37.6538 42.1681 37.7673C41.8471 37.8903 41.6205 37.9565 41.4601 37.9565C41.2996 37.966 41.1391 37.947 40.9692 37.8903C40.8087 37.8335 40.6482 37.7484 40.4783 37.6348C40.1762 37.4172 39.978 37.1429 39.893 36.8212C39.8175 36.4995 39.8742 36.1968 40.063 35.9319C40.3178 35.5819 40.5916 35.3926 40.8842 35.3453H40.922L41.4789 36.0265L41.3751 36.0454C41.0919 36.0927 40.8842 36.2157 40.7521 36.4049C40.6766 36.509 40.6577 36.6131 40.686 36.7171C40.7143 36.8307 40.7898 36.9253 40.9126 37.0104C41.1108 37.1523 41.4506 37.1334 41.9321 36.9442C42.2058 36.8401 42.4229 36.7739 42.6023 36.7645C42.7722 36.7645 42.9516 36.7834 43.1404 36.8401C43.3197 36.8969 43.4991 36.9915 43.669 37.1145C43.99 37.351 44.1882 37.6348 44.2543 37.9849C44.3204 38.3349 44.2448 38.6661 44.0088 38.9972H43.9994ZM45.3399 36.9158L41.1297 34.5506L41.4789 33.9357L41.5073 33.8789L45.7175 36.2441L45.3493 36.9158H45.3399ZM46.652 34.1628C46.652 34.1628 43.0932 32.7247 42.9799 32.6869C42.9327 32.7909 42.5551 33.7465 42.5551 33.7465L41.7527 33.4154L42.876 30.615L42.8949 30.5582L43.6973 30.8799C43.6973 30.8799 43.3008 31.8827 43.2536 31.9868C43.3669 32.0341 46.9258 33.4627 46.9258 33.4627L46.6426 34.1628H46.652ZM47.9736 29.9338H47.917C47.917 29.9338 46.0479 29.5554 46.0479 29.5459L42.9988 30.2176L43.1592 29.4229C43.1592 29.4229 44.9245 29.0539 45.1794 28.9972C44.9717 28.8553 43.4708 27.843 43.4708 27.843L43.6029 27.1429L43.6218 27.0483C43.6218 27.0483 46.1611 28.7985 46.18 28.808C46.2083 28.808 48.1152 29.1864 48.1152 29.1864L47.9642 29.9338H47.9736Z" fill="white"/>
<path d="M46.3499 20.6148L44.8584 19.7822L45.0755 20.8608L46.3499 20.6148Z" fill="white"/>
<path d="M61.6796 35.856L61.3775 36.6696C61.0943 36.452 60.6412 36.3385 60.0276 36.3385C59.4518 36.3385 58.9892 36.6034 58.6399 37.1237C58.2907 37.644 58.1207 38.3252 58.1207 39.1483C58.1207 39.9714 58.3001 40.5769 58.6588 41.0688C59.0175 41.5608 59.4707 41.8068 60.037 41.8068C60.6506 41.8068 61.1226 41.5703 61.453 41.1067L61.9533 41.8257C61.4247 42.3744 60.7545 42.6488 59.9426 42.6488C59.1308 42.6488 58.4134 42.3177 57.9225 41.6649C57.4316 41.0121 57.1768 40.1511 57.1768 39.0821C57.1768 38.013 57.4411 37.1899 57.9697 36.4993C58.4983 35.8181 59.178 35.4775 60.0087 35.4775C60.7167 35.4775 61.2737 35.6005 61.6796 35.8465V35.856Z" fill="white"/>
<path d="M66.8528 42.5255V39.1764H63.9925V42.5255H63.0957V35.5908H63.9925V38.3723H66.8528V35.5908H67.7496V42.5255H66.8528Z" fill="white"/>
<path d="M70.0911 36.4423V38.3723H72.2151V39.1764H70.0911V41.6741H73.0647V42.5255H69.1943V35.5908H73.0647V36.4423H70.0911Z" fill="white"/>
<path d="M75.2633 37.0483C75.556 36.5658 75.9808 36.3293 76.5377 36.3293C77.7932 36.3293 78.4257 37.2186 78.4257 39.0067C78.4257 39.8865 78.2652 40.5772 77.9348 41.0691C77.6139 41.5611 77.1419 41.7976 76.5283 41.7976C75.9807 41.7976 75.556 41.5327 75.2633 41.0029C74.9612 40.4731 74.8196 39.8014 74.8196 39.0067C74.8196 38.212 74.9707 37.5308 75.2539 37.0483H75.2633ZM74.5931 41.6273C75.0651 42.3085 75.707 42.6491 76.5471 42.6491C77.4534 42.6491 78.1519 42.3274 78.6428 41.6841C79.1337 41.0408 79.3697 40.1514 79.3697 39.0067C79.3697 37.862 79.1242 37.0294 78.6428 36.4145C78.1519 35.7901 77.4534 35.4873 76.5471 35.4873C75.7353 35.4873 75.084 35.8279 74.612 36.4996C74.1305 37.1713 73.8945 38.0133 73.8945 39.0162C73.8945 40.0758 74.1305 40.9556 74.6025 41.6368L74.5931 41.6273Z" fill="white"/>
<path d="M84.7317 42.6205L81.3428 37.559V42.5353H80.4932V35.6006H80.8519L84.1653 40.3972V35.6006H85.0149V42.6205H84.7411H84.7317Z" fill="white"/>
<path d="M91.0093 36.0833L90.6317 36.8686C90.1786 36.5091 89.7349 36.3293 89.3007 36.3293C88.6116 36.3293 88.0641 36.5848 87.6676 37.0956C87.2711 37.6065 87.0729 38.2877 87.0729 39.1297C87.0729 39.9717 87.2711 40.5772 87.6582 41.0691C88.0546 41.5611 88.5738 41.7976 89.2535 41.7976C89.735 41.7976 90.122 41.6462 90.4146 41.3435V39.7163H89.499V38.9121H91.3114V41.9395C91.0754 42.1571 90.7356 42.3274 90.3108 42.4599C89.886 42.5923 89.4706 42.6585 89.0647 42.6585C88.1585 42.6585 87.4411 42.3369 86.9219 41.6841C86.3932 41.0313 86.1289 40.1704 86.1289 39.1013C86.1289 38.0322 86.4121 37.1619 86.9974 36.4901C87.5732 35.8184 88.3473 35.4873 89.329 35.4873C90.0181 35.4873 90.5751 35.686 91.0093 36.0928V36.0833Z" fill="white"/>
<path d="M92.3031 41.1348H93.0866C93.1621 41.5605 93.3886 41.7687 93.7946 41.7687C94.2005 41.7687 94.4648 41.6835 94.6253 41.4943C94.7857 41.3146 94.8613 40.8037 94.8613 39.9711V35.5908H95.7675V39.9333C95.7675 40.8794 95.6259 41.5605 95.3333 41.9863C95.0501 42.412 94.5309 42.6201 93.7851 42.6201C93.3603 42.6201 93.011 42.4877 92.7373 42.2133C92.4635 41.9484 92.3125 41.5889 92.2842 41.1348H92.3031Z" fill="white"/>
<path d="M97.2207 35.6006H98.1175V40.3499C98.1175 40.7756 98.2497 41.1162 98.4951 41.3906C98.75 41.6649 99.0898 41.7974 99.5052 41.7974C99.9488 41.7974 100.298 41.6649 100.553 41.4C100.808 41.1351 100.94 40.7756 100.94 40.3215V35.6006H101.837V40.4256C101.837 41.1257 101.629 41.6744 101.214 42.0623C100.798 42.4502 100.232 42.6488 99.524 42.6488C98.816 42.6488 98.2213 42.4596 97.8249 42.0717C97.4284 41.6838 97.2207 41.1351 97.2207 40.4161V35.6006Z" fill="white"/>
<path d="M106.132 35.6006H107.038V40.3499C107.038 40.7756 107.161 41.1162 107.425 41.3906C107.68 41.6649 108.02 41.7974 108.435 41.7974C108.879 41.7974 109.228 41.6649 109.483 41.4C109.738 41.1351 109.861 40.7756 109.861 40.3215V35.6006H110.757V40.4256C110.757 41.1257 110.55 41.6744 110.134 42.0623C109.719 42.4502 109.153 42.6488 108.445 42.6488C107.737 42.6488 107.142 42.4596 106.745 42.0717C106.349 41.6838 106.141 41.1351 106.141 40.4161V35.6006H106.132Z" fill="white"/>
<path d="M116.431 42.6205L113.042 37.559V42.5353H112.192V35.6006H112.542L115.855 40.3972V35.6006H116.705V42.6205H116.431Z" fill="white"/>
<path d="M118.291 42.5255V35.5908H119.196V42.5255H118.291Z" fill="white"/>
<path d="M123.077 42.6205H122.624L120.179 35.6006H121.179L122.86 40.6999L124.493 35.6006H125.456L123.077 42.6205Z" fill="white"/>
<path d="M127.174 36.4423V38.3723H129.298V39.1764H127.174V41.6741H130.147V42.5255H126.268V35.5908H130.147V36.4423H127.174Z" fill="white"/>
<path d="M132.753 36.4043C133.319 36.4043 133.734 36.4894 133.999 36.6597C134.263 36.83 134.395 37.1138 134.395 37.4922C134.395 37.9653 134.272 38.2869 134.027 38.4762C133.782 38.6559 133.385 38.7505 132.847 38.7505C132.649 38.7505 132.441 38.7316 132.224 38.7032V36.4516C132.488 36.4232 132.668 36.4043 132.753 36.4043ZM135.962 42.5254L134.055 39.3371C134.405 39.2519 134.707 39.0343 134.962 38.6843C135.216 38.3343 135.349 37.9464 135.349 37.5112C135.349 36.1867 134.556 35.5244 132.97 35.5244C132.771 35.5244 132.46 35.5339 132.026 35.5623C131.591 35.5906 131.355 35.6001 131.327 35.6001V42.5254H132.233V39.4979C132.668 39.5263 132.989 39.5452 133.187 39.5452L134.933 42.5159H135.962V42.5254Z" fill="white"/>
<path d="M136.434 42.2135L136.764 41.3526C136.925 41.4756 137.132 41.5891 137.387 41.6743C137.633 41.7594 137.859 41.8067 138.058 41.8067C138.407 41.8067 138.69 41.7026 138.898 41.504C139.105 41.3053 139.209 41.0499 139.209 40.7377C139.209 40.5011 139.153 40.293 139.03 40.0849C138.917 39.8862 138.615 39.6686 138.143 39.4321L137.623 39.1766C137.18 38.959 136.859 38.6941 136.679 38.3914C136.5 38.0886 136.415 37.7291 136.415 37.3034C136.415 36.7831 136.585 36.3573 136.934 36.0167C137.284 35.6762 137.727 35.5059 138.265 35.5059C138.992 35.5059 139.502 35.6289 139.785 35.8843L139.521 36.7074C139.407 36.6128 139.219 36.5182 138.973 36.433C138.728 36.3479 138.501 36.3006 138.294 36.3006C137.992 36.3006 137.746 36.3857 137.576 36.5749C137.397 36.7641 137.312 36.9912 137.312 37.2845C137.312 37.4642 137.34 37.6251 137.406 37.767C137.472 37.9089 137.557 38.0319 137.671 38.1359C137.784 38.2306 138.01 38.3725 138.36 38.5522L138.898 38.8266C139.341 39.0536 139.662 39.3185 139.842 39.6307C140.021 39.9429 140.115 40.3308 140.115 40.8133C140.115 41.3337 139.917 41.7783 139.521 42.1378C139.124 42.4973 138.596 42.6866 137.925 42.6866C137.34 42.6866 136.849 42.5447 136.434 42.2514V42.2135Z" fill="white"/>
<path d="M141.391 42.5255V35.5908H142.286V42.5255H141.391Z" fill="white"/>
<path d="M146.29 36.4423V42.5255H145.393V36.4423H143.307V35.5908H148.48V36.4423H146.29Z" fill="white"/>
<path d="M151.717 39.4224V42.5255H150.82V39.4224L148.696 35.5908H149.621L151.254 38.6183L152.897 35.5908H153.813L151.708 39.4224H151.717Z" fill="white"/>
<path d="M116.582 11.0879V14.5884H115.383V11.0879H112.136V29.7066H115.383V17.4077H116.582V29.7066H119.829V11.0879H116.582Z" fill="white"/>
<path d="M100.525 11.1543V22.0814H109.758V19.0067H103.735V14.2196H109.758V11.1543H100.525Z" fill="white"/>
<path d="M159.666 25.7522C159.666 25.4683 159.666 21.0312 159.666 21.0312H156.277V25.7616H152.255V21.0312H148.866C148.866 21.0312 148.866 25.4778 148.866 25.7616C148.593 25.7616 145.449 25.7616 145.449 25.7616V28.7512H164.999V25.7522C164.999 25.7522 159.949 25.7522 159.666 25.7522Z" fill="white"/>
<path d="M161.072 21.5886H164.254V11.3994H164.102H145.817V14.4647H161.072V21.5886Z" fill="white"/>
<path d="M66.5414 21.9584C64.474 23.8127 64.2852 26.9821 66.1071 29.0351C67.9385 31.0786 71.1103 31.2394 73.1682 29.3946C74.1783 28.4864 74.773 27.247 74.8485 25.9036C74.8485 25.809 74.8485 25.7144 74.8485 25.6198C74.8485 24.3993 74.4048 23.2356 73.593 22.318C71.7616 20.265 68.5993 20.1041 66.5319 21.949L66.5414 21.9584ZM71.0914 27.0672C70.7138 27.4078 70.2324 27.5781 69.7226 27.5403C69.2318 27.5119 68.7786 27.2943 68.4577 26.9253C68.1462 26.5753 67.9951 26.1401 67.9951 25.7049C67.9951 25.1846 68.2122 24.6737 68.6276 24.2952C69.0052 23.9547 69.4866 23.7844 69.9869 23.8128C70.4778 23.8411 70.9309 24.0587 71.2613 24.4277C71.941 25.1846 71.8655 26.3672 71.1008 27.0672H71.0914Z" fill="white"/>
<path d="M69.2696 18.0602C69.2696 18.0602 67.1739 14.7962 66.9096 14.3894H69.4867V11.4471H65.0311V9.71582H61.7271V11.4282H57.1016V14.38H59.8486C59.5748 14.7962 57.3848 18.0413 57.3848 18.0413L60.0846 19.5834C60.0846 19.5834 63.0298 14.8625 63.2658 14.503C63.5018 14.8625 66.5887 19.5834 66.5887 19.5834L69.279 18.0413L69.2696 18.0602Z" fill="white"/>
<path d="M73.0927 11.0029C73.0927 11.0029 73.0927 13.3019 73.0927 13.5668H70.3174V16.528H73.0927V20.1798H76.3872V11.0029H73.1022H73.0927Z" fill="white"/>
<path d="M97.8821 14.115V11.1064H79.1344V14.1717H84.2792C83.5995 14.6448 78.9834 17.852 78.9834 17.852L81.8531 19.3657C81.8531 19.3657 88.395 14.3515 88.5743 14.2096C88.7537 14.3515 95.22 19.3562 95.22 19.3562L98.3163 17.852C98.3163 17.852 93.4453 14.588 92.7373 14.115H97.8821Z" fill="white"/>
<path d="M78.6816 22.0049V25.0985H86.9132V30.0276H90.255V25.0985H98.2789V22.0049H78.6911H78.6816Z" fill="white"/>
<path d="M122.983 16.3945C122.983 17.0662 123.115 17.7285 123.379 18.3623C123.898 19.6111 124.88 20.5856 126.136 21.0965C127.363 21.5979 128.713 21.5884 129.93 21.0776C131.158 20.5667 132.102 19.6017 132.602 18.3623C132.857 17.7474 132.98 17.104 132.98 16.4607C132.98 15.8174 132.847 15.1267 132.574 14.4929C132.574 14.4834 132.555 14.455 132.555 14.4361H133.725V11.5979H129.742V9.84766H126.23V11.5884C125.956 11.5884 122.001 11.5884 122.001 11.5884V14.4361H123.426C123.162 15.07 122.992 15.7228 122.992 16.3945H122.983ZM129.723 15.6471C129.921 16.1107 129.921 16.631 129.732 17.104C129.543 17.5676 129.185 17.9366 128.722 18.1258C127.769 18.5232 126.655 18.069 126.249 17.104C126.155 16.8675 126.107 16.6121 126.107 16.3661C126.107 15.6282 126.542 14.9186 127.25 14.6159C128.203 14.2185 129.317 14.6726 129.713 15.6376L129.723 15.6471Z" fill="white"/>
<path d="M140.928 11.1162H137.728V20.558H140.947V16.4615H143.061V13.4341H140.928V11.1162Z" fill="white"/>
<path d="M122.681 22.0996V25.1081H137.983V30.0372H141.117V22.0996H122.681Z" fill="white"/>
</g>
<defs>
<clipPath id="clip0_39_983">
<rect width="165" height="50" fill="white"/>
</clipPath>
</defs>
</svg>
