<svg width="226" height="36" viewBox="0 0 226 36" fill="none" xmlns="http://www.w3.org/2000/svg">
<g clip-path="url(#clip0_21_189)">
<path d="M62.2127 3.95801H45.6925C36.0987 3.95801 31.7883 10.372 31.7883 14.9441C31.7883 19.5161 35.4796 23.051 45.0082 23.051L46.954 23.0603C49.0533 23.0603 50.2217 23.3534 50.2543 24.758C50.2682 25.5301 49.7422 26.4324 49.1743 26.8743C47.8942 27.865 46.7631 27.9673 40.735 27.9673H10.9902L16.739 3.98591H6.79614C6.13049 3.98591 5.88378 4.17661 5.68827 4.96731L0.237386 27.4417C-0.786691 31.9115 1.51748 35.9999 6.6658 35.9999H20.3093C23.7632 35.9999 28.3902 32.2278 30.2661 28.7441C30.3685 28.5487 30.4337 28.4278 30.5128 28.2696C30.5128 28.2696 30.5547 28.2185 30.5641 28.2882C30.2661 29.5441 29.2188 33.9673 29.0512 34.6929C28.8324 35.6324 29.3212 35.9906 29.7727 35.9906H44.4496C56.8968 35.9906 61.7565 30.0696 62.1848 22.9627C62.4222 18.9673 59.8946 16.3859 52.7446 16.3859H47.2519C45.2968 16.3859 43.2952 15.7441 43.2952 14.1627C43.2952 12.5813 45.4737 11.1999 48.4156 11.1999H61.7798C61.7798 11.1999 62.9482 6.5208 63.1809 5.54405C63.4695 4.31615 63.1018 3.95801 62.2034 3.95801" fill="white"/>
<path d="M66.3602 7.0186L80.041 0H53.4522C53.4522 0 64.9684 2.34419 65.9925 2.54884C67.0212 2.75814 67.254 3.30698 67.0771 4.03256C66.9142 4.71628 66.3602 7.01395 66.3602 7.01395" fill="white"/>
<path d="M132.492 23.7159L132.981 21.7299C133.274 20.5996 132.548 20.0508 131.813 20.0508H116.056C115.19 20.0508 114.985 20.2694 114.804 21.0182L112.081 32.3205L111.652 34.0926C111.378 35.1019 111.624 35.9857 112.923 35.9857H128.233C129.457 35.9857 130.025 35.2136 130.277 34.3019L130.756 32.3205H116.489L117.117 29.7112H127.121C128.345 29.7112 128.913 28.9392 129.164 28.0275L129.644 26.0461H118.002L118.565 23.7159H132.502H132.492Z" fill="white"/>
<path d="M99.3542 20.0557H95.9701C95.1089 20.0557 94.8994 20.2743 94.7179 21.0231L91.5665 34.1022C91.2919 35.1115 91.5386 35.9952 92.8373 35.9952H107.97C109.195 35.9952 109.763 35.2231 110.014 34.3115L110.493 32.3301H96.3983L99.3542 20.0603V20.0557Z" fill="white"/>
<path d="M224.762 20.0554H214.093C209.81 20.0554 207.422 21.7252 206.417 25.7252L205.481 29.595C204.727 32.9857 205.635 35.9903 210.318 35.9903H221.354C222.579 35.9903 223.147 35.2182 223.393 34.3066L223.873 32.3252H211.965C209.913 32.3252 209.512 31.3252 209.834 29.7996L210.611 26.5019C211.146 24.3903 212.957 23.7159 214.456 23.7159H225.446L225.935 21.7299C226.228 20.5996 225.502 20.0508 224.766 20.0508L224.762 20.0554Z" fill="white"/>
<path d="M152.099 20.0554H141.43C137.147 20.0554 134.759 21.7252 133.754 25.7252L132.818 29.595C132.064 32.9857 132.972 35.9903 137.655 35.9903H148.691C149.916 35.9903 150.484 35.2182 150.73 34.3066L151.21 32.3252H139.303C137.25 32.3252 136.849 31.3252 137.171 29.7996L137.948 26.5019C138.483 24.3903 140.294 23.7159 141.793 23.7159H152.778L153.267 21.7299C153.56 20.5996 152.834 20.0508 152.099 20.0508V20.0554Z" fill="white"/>
<path d="M203.712 20.0557H200.417L197.019 34.1022C196.744 35.1115 196.991 35.9952 198.289 35.9952H201.445L204.881 21.7394C205.174 20.6092 204.448 20.0603 203.712 20.0603V20.0557Z" fill="white"/>
<path d="M175.634 21.7347C175.927 20.6045 175.201 20.0557 174.466 20.0557H156.214C155.353 20.0557 155.143 20.2743 154.962 21.0231L154.301 23.7208H162.34L159.835 34.1022C159.561 35.1115 159.807 35.9952 161.106 35.9952H164.048L167.004 23.7254H175.15L175.639 21.7394L175.634 21.7347Z" fill="white"/>
<path d="M191.219 20.0557H178.571C177.71 20.0557 177.501 20.2743 177.319 21.0231L174.154 34.1022C173.879 35.1115 174.126 35.9952 175.424 35.9952H178.106L181.062 23.7254H190.381C193.444 23.7254 192.769 27.9766 189.166 27.9766H182.453C181.788 27.9766 181.536 28.6557 181.983 29.1394L184.283 31.6417L187.141 34.7487C188.039 35.758 188.277 35.9999 189.575 35.9999H194.063L189.883 31.6138C198.057 31.0324 199.933 20.065 191.219 20.065V20.0557Z" fill="white"/>
<path d="M91.9622 15.9072H72.0951C71.0058 15.9072 70.7451 16.1816 70.5171 17.1258L67.0817 31.377L66.5371 33.6096C66.188 34.884 66.5045 35.9956 68.1384 35.9956H87.4376C88.983 35.9956 89.6952 35.0235 90.0118 33.8747L90.4866 31.9305H71.9275L72.8538 28.084H86.0318C87.5773 28.084 88.2895 27.1119 88.606 25.963L89.2111 23.4654H73.9663L74.8089 19.9723H92.949L93.4285 18.0235C93.7962 16.6002 92.8792 15.9072 91.9529 15.9072H91.9622Z" fill="white"/>
</g>
<defs>
<clipPath id="clip0_21_189">
<rect width="226" height="36" fill="white"/>
</clipPath>
</defs>
</svg>
