<svg width="226" height="36" viewBox="0 0 226 36" fill="none" xmlns="http://www.w3.org/2000/svg">
<g clip-path="url(#clip0_21_436)">
<path d="M62.163 3.95801H45.656C36.07 3.95801 31.763 10.372 31.763 14.9441C31.763 19.5161 35.4514 23.051 44.9723 23.051L46.9165 23.0603C49.0142 23.0603 50.1816 23.3534 50.2142 24.758C50.2281 25.5301 49.7026 26.4324 49.1351 26.8743C47.856 27.865 46.7258 27.9673 40.7026 27.9673H10.9816L16.7258 3.98591H6.79093C6.12581 3.98591 5.8793 4.17661 5.68395 4.96731L0.237439 27.4417C-0.785817 31.9115 1.51651 35.9999 6.6607 35.9999H20.2933C23.7444 35.9999 28.3677 32.2278 30.2421 28.7441C30.3444 28.5487 30.4095 28.4278 30.4886 28.2696C30.4886 28.2696 30.5305 28.2185 30.5398 28.2882C30.2421 29.5441 29.1956 33.9673 29.0281 34.6929C28.8095 35.6324 29.2979 35.9906 29.7491 35.9906H44.4142C56.8514 35.9906 61.7072 30.0696 62.1351 22.9627C62.3723 18.9673 59.8467 16.3859 52.7026 16.3859H47.2142C45.2607 16.3859 43.2607 15.7441 43.2607 14.1627C43.2607 12.5813 45.4374 11.1999 48.377 11.1999H61.7305C61.7305 11.1999 62.8979 6.5208 63.1305 5.54405C63.4188 4.31615 63.0514 3.95801 62.1537 3.95801" fill="#003478"/>
<path d="M66.3071 7.01861L79.9769 0H53.4094C53.4094 0 64.9164 2.34419 65.9397 2.54884C66.9676 2.75814 67.2001 3.30698 67.0234 4.03256C66.8606 4.71628 66.3071 7.01395 66.3071 7.01395" fill="#E6003F"/>
<path d="M132.386 23.7159L132.874 21.7299C133.167 20.5996 132.442 20.0508 131.707 20.0508H115.963C115.098 20.0508 114.893 20.2694 114.712 21.0182L111.991 32.3205L111.563 34.0926C111.288 35.1019 111.535 35.9857 112.832 35.9857H128.13C129.353 35.9857 129.921 35.2136 130.172 34.3019L130.651 32.3205H116.395L117.023 29.7112H127.018C128.242 29.7112 128.809 28.9392 129.06 28.0275L129.539 26.0461H117.907L118.47 23.7159H132.395H132.386Z" fill="url(#paint0_linear_21_436)"/>
<path d="M99.2745 20.0557H95.8931C95.0326 20.0557 94.8233 20.2743 94.6419 21.0231L91.4931 34.1022C91.2187 35.1115 91.4652 35.9952 92.7629 35.9952H107.884C109.107 35.9952 109.674 35.2231 109.926 34.3115L110.405 32.3301H96.321L99.2745 20.0603V20.0557Z" fill="url(#paint1_linear_21_436)"/>
<path d="M224.581 20.0554H213.921C209.642 20.0554 207.256 21.7252 206.251 25.7252L205.316 29.595C204.563 32.9857 205.47 35.9903 210.149 35.9903H221.177C222.4 35.9903 222.967 35.2182 223.214 34.3066L223.693 32.3252H211.795C209.744 32.3252 209.344 31.3252 209.665 29.7996L210.442 26.5019C210.977 24.3903 212.786 23.7159 214.284 23.7159H225.265L225.753 21.7299C226.047 20.5996 225.321 20.0508 224.586 20.0508L224.581 20.0554Z" fill="url(#paint2_linear_21_436)"/>
<path d="M151.977 20.0554H141.316C137.037 20.0554 134.651 21.7252 133.646 25.7252L132.712 29.595C131.958 32.9857 132.865 35.9903 137.544 35.9903H148.572C149.795 35.9903 150.363 35.2182 150.609 34.3066L151.088 32.3252H139.191C137.139 32.3252 136.739 31.3252 137.06 29.7996L137.837 26.5019C138.372 24.3903 140.181 23.7159 141.679 23.7159H152.656L153.144 21.7299C153.437 20.5996 152.712 20.0508 151.977 20.0508V20.0554Z" fill="url(#paint3_linear_21_436)"/>
<path d="M203.549 20.0557H200.256L196.861 34.1022C196.586 35.1115 196.833 35.9952 198.13 35.9952H201.284L204.716 21.7394C205.009 20.6092 204.284 20.0603 203.549 20.0603V20.0557Z" fill="url(#paint4_linear_21_436)"/>
<path d="M175.493 21.7347C175.786 20.6045 175.06 20.0557 174.326 20.0557H156.088C155.228 20.0557 155.019 20.2743 154.837 21.0231L154.177 23.7208H162.209L159.707 34.1022C159.433 35.1115 159.679 35.9952 160.977 35.9952H163.916L166.87 23.7254H175.009L175.498 21.7394L175.493 21.7347Z" fill="url(#paint5_linear_21_436)"/>
<path d="M191.065 20.0557H178.428C177.567 20.0557 177.358 20.2743 177.177 21.0231L174.014 34.1022C173.739 35.1115 173.986 35.9952 175.284 35.9952H177.963L180.916 23.7254H190.228C193.288 23.7254 192.614 27.9766 189.014 27.9766H182.307C181.642 27.9766 181.391 28.6557 181.837 29.1394L184.135 31.6417L186.991 34.7487C187.888 35.758 188.125 35.9999 189.423 35.9999H193.907L189.73 31.6138C197.898 31.0324 199.772 20.065 191.065 20.065V20.0557Z" fill="url(#paint6_linear_21_436)"/>
<path d="M91.8884 15.9072H72.0372C70.9488 15.9072 70.6884 16.1816 70.4605 17.1258L67.0279 31.377L66.4837 33.6096C66.1349 34.884 66.4512 35.9956 68.0837 35.9956H87.3674C88.9116 35.9956 89.6233 35.0235 89.9395 33.8747L90.414 31.9305H71.8698L72.7954 28.084H85.9628C87.507 28.084 88.2186 27.1119 88.5349 25.963L89.1395 23.4654H73.907L74.7488 19.9723H92.8744L93.3535 18.0235C93.7209 16.6002 92.8047 15.9072 91.8791 15.9072H91.8884Z" fill="url(#paint7_linear_21_436)"/>
</g>
<defs>
<linearGradient id="paint0_linear_21_436" x1="122.781" y1="35.6415" x2="122.781" y2="19.9671" gradientUnits="userSpaceOnUse">
<stop stop-color="#0075BE"/>
<stop offset="1" stop-color="#003478"/>
</linearGradient>
<linearGradient id="paint1_linear_21_436" x1="101.595" y1="-0.00014959" x2="101.595" y2="-0.00014959" gradientUnits="userSpaceOnUse">
<stop stop-color="#0075BE"/>
<stop offset="1" stop-color="#003478"/>
</linearGradient>
<linearGradient id="paint2_linear_21_436" x1="215.995" y1="-0.000380359" x2="215.995" y2="-0.000380359" gradientUnits="userSpaceOnUse">
<stop stop-color="#0075BE"/>
<stop offset="1" stop-color="#003478"/>
</linearGradient>
<linearGradient id="paint3_linear_21_436" x1="143.386" y1="-0.000380359" x2="143.386" y2="-0.000380359" gradientUnits="userSpaceOnUse">
<stop stop-color="#0075BE"/>
<stop offset="1" stop-color="#003478"/>
</linearGradient>
<linearGradient id="paint4_linear_21_436" x1="201.354" y1="-0.00014959" x2="201.354" y2="-0.00014959" gradientUnits="userSpaceOnUse">
<stop stop-color="#0075BE"/>
<stop offset="1" stop-color="#003478"/>
</linearGradient>
<linearGradient id="paint5_linear_21_436" x1="165.335" y1="-0.00014959" x2="165.335" y2="-0.00014959" gradientUnits="userSpaceOnUse">
<stop stop-color="#0075BE"/>
<stop offset="1" stop-color="#003478"/>
</linearGradient>
<linearGradient id="paint6_linear_21_436" x1="185.967" y1="-0.000150727" x2="185.967" y2="-0.000150727" gradientUnits="userSpaceOnUse">
<stop stop-color="#0075BE"/>
<stop offset="1" stop-color="#003478"/>
</linearGradient>
<linearGradient id="paint7_linear_21_436" x1="79.907" y1="35.6468" x2="79.907" y2="19.6468" gradientUnits="userSpaceOnUse">
<stop stop-color="#0075BE"/>
<stop offset="1" stop-color="#003478"/>
</linearGradient>
<clipPath id="clip0_21_436">
<rect width="225.819" height="36" fill="white"/>
</clipPath>
</defs>
</svg>
