<svg width="91" height="40" viewBox="0 0 91 40" fill="none" xmlns="http://www.w3.org/2000/svg">
<g clip-path="url(#clip0_135_3)">
<path fill-rule="evenodd" clip-rule="evenodd" d="M0 20V40H10.4607C23.643 40 24.0682 39.6596 24.5785 29.7021C24.8336 23.0638 24.8336 22.9787 22.1122 20.4255C20.5813 19.0638 19.8159 17.8723 20.2411 17.8723C23.728 17.8723 25.0037 10.0426 22.4523 4.68085C20.6664 0.93617 17.7748 0 7.99439 0H0V20ZM13.4374 11.0638C13.6925 14.5532 12.5019 16.6809 10.886 15.6596C10.0355 15.1489 9.95047 8.17021 10.8009 7.31915C12.0766 6.04255 13.1822 7.57447 13.4374 11.0638ZM13.1822 27.7447C13.1822 31.8298 12.9271 32.766 11.7364 33.0213C10.3757 33.2766 10.2056 32.5957 10.2056 28.2553C10.2056 25.5319 10.4607 22.9787 10.8009 22.6383C12.2467 21.1915 13.1822 23.0638 13.1822 27.7447Z" fill="white"/>
<path fill-rule="evenodd" clip-rule="evenodd" d="M45.0752 2.55319V5.10638H50.178H55.2808V2.55319V0H50.178H45.0752V2.55319Z" fill="white"/>
<path fill-rule="evenodd" clip-rule="evenodd" d="M59.5328 5.10593C59.5328 6.80805 59.1076 7.65912 58.2571 7.65912C57.4067 7.65912 56.9814 8.59529 56.9814 10.6378C56.9814 12.6804 57.4067 13.6166 58.2571 13.6166C59.3628 13.6166 59.5328 15.4889 59.5328 25.4463C59.5328 39.6591 59.7029 39.9995 67.2721 39.9995C70.6173 39.9995 72.2899 39.1485 72.2899 37.4463C72.2899 35.7442 71.8646 34.8932 71.0142 34.8932C69.9085 34.8932 69.7385 33.1059 69.7385 24.2549C69.7385 15.4038 69.9085 13.6166 71.0142 13.6166C71.8646 13.6166 72.2899 12.6804 72.2899 10.6378C72.2899 8.59529 71.8646 7.65912 71.0142 7.65912C70.1637 7.65912 69.7385 6.80805 69.7385 5.10593V2.55273H59.5328V5.10593Z" fill="white"/>
<path fill-rule="evenodd" clip-rule="evenodd" d="M38.4409 8.16996C37.4203 8.85081 36.5699 9.02102 36.5699 8.59549C36.5699 7.99975 34.4437 7.65932 31.4671 7.65932H26.3643V39.9997H36.5699V30.3827C36.5699 20.17 37.0801 18.7232 40.5671 18.7232C42.4381 18.7232 42.5231 18.3827 42.5231 12.7657C42.5231 6.38272 41.9278 5.70187 38.4409 8.16996Z" fill="white"/>
<path fill-rule="evenodd" clip-rule="evenodd" d="M45.0752 23.8294V39.9996H50.178H55.2808V23.8294V7.65918H50.178H45.0752V23.8294Z" fill="white"/>
<path fill-rule="evenodd" clip-rule="evenodd" d="M74.8407 10.6379C74.8407 13.4464 75.0108 13.6166 77.8173 13.6166C79.5183 13.6166 80.794 14.0422 80.794 14.6379C80.794 15.2336 79.2631 19.5741 77.3921 24.34C75.436 29.4464 73.9902 34.4677 73.9902 36.5102V39.9996H90.9996V37.0209C90.9996 34.1273 90.9145 34.0422 87.5977 34.0422C85.7267 34.0422 84.1958 33.7868 84.1958 33.4464C84.1958 33.106 85.7267 28.9358 87.5977 24.1698C89.8089 18.4677 90.9996 14.0422 90.9996 11.5741V7.65918H74.8407V10.6379Z" fill="white"/>
</g>
<defs>
<clipPath id="clip0_135_3">
<rect width="91" height="40" fill="white"/>
</clipPath>
</defs>
</svg>
